<svg xmlns="http://www.w3.org/2000/svg" xmlns:xlink="http://www.w3.org/1999/xlink" viewBox="0 0 66.92 59.97"><defs><linearGradient id="b" x1="38.75" y1="39" x2="59.07" y2="18.67" gradientUnits="userSpaceOnUse"><stop offset="0" stop-color="#d0e8f8"/><stop offset="1" stop-color="#e1eef9"/></linearGradient><linearGradient id="a" x1="7.64" y1="48.29" x2="14.53" y2="48.29" gradientUnits="userSpaceOnUse"><stop offset="0" stop-color="#00aeef"/><stop offset="1" stop-color="#00bdf2"/></linearGradient><linearGradient id="c" x1="23.76" y1="48.29" x2="30.64" y2="48.29" xlink:href="#a"/><linearGradient id="d" x1="39.87" y1="48.29" x2="46.75" y2="48.29" xlink:href="#a"/><linearGradient id="e" x1="12.64" y1="55.47" x2="19.53" y2="55.47" xlink:href="#a"/><linearGradient id="f" x1="29.26" y1="55.47" x2="36.14" y2="55.47" xlink:href="#a"/><linearGradient id="g" x1="45.87" y1="55.47" x2="52.75" y2="55.47" xlink:href="#a"/></defs><g data-name="Layer 2"><path d="M46 36.44a10.67 10.67 0 100-21.33h-.11a17 17 0 00-32.44-5.07h-.25a13.2 13.2 0 000 26.4" fill="#f6f6f6"/><path d="M60.22 36.44a6.7 6.7 0 100-13.39h-.07a10.69 10.69 0 00-20.37-3.18h-.16a8.29 8.29 0 000 16.58" fill="url(#b)"/><path d="M9.64 52.79a2 2 0 01-1-.27 2 2 0 01-.73-2.73l2.89-5a2 2 0 113.46 2l-2.88 5a2 2 0 01-1.74 1z" fill="url(#a)"/><path d="M25.75 52.79a2 2 0 01-1-.27 2 2 0 01-.75-2.73l2.89-5a2 2 0 113.46 2l-2.88 5a2 2 0 01-1.72 1z" fill="url(#c)"/><path d="M41.87 52.79a2 2 0 01-1.74-3l2.89-5a2 2 0 113.47 2l-2.89 5a2 2 0 01-1.73 1z" fill="url(#d)"/><path d="M14.64 60a2 2 0 01-1-.27 2 2 0 01-.73-2.73l2.89-5a2 2 0 113.46 2l-2.88 5a2 2 0 01-1.74 1z" fill="url(#e)"/><path d="M31.25 60a2 2 0 01-1.73-3l2.89-5a2 2 0 113.47 2L33 59a2 2 0 01-1.75 1z" fill="url(#f)"/><path d="M47.87 60a2 2 0 01-1.74-3L49 52a2 2 0 113.47 2l-2.87 5a2 2 0 01-1.73 1z" fill="url(#g)"/></g></svg>