<svg xmlns="http://www.w3.org/2000/svg" xmlns:xlink="http://www.w3.org/1999/xlink" viewBox="0 0 66.92 54.74"><defs><linearGradient id="b" x1="38.75" y1="39" x2="59.07" y2="18.67" gradientUnits="userSpaceOnUse"><stop offset="0" stop-color="#d0e8f8"/><stop offset="1" stop-color="#e1eef9"/></linearGradient><linearGradient id="a" x1="9.13" y1="45.24" x2="22.13" y2="45.24" gradientUnits="userSpaceOnUse"><stop offset="0" stop-color="#00aeef"/><stop offset="1" stop-color="#00bdf2"/></linearGradient><linearGradient id="c" x1="25.63" y1="45.24" x2="43.63" y2="45.24" xlink:href="#a"/><linearGradient id="d" x1="9.13" y1="53.24" x2="32.13" y2="53.24" xlink:href="#a"/><linearGradient id="e" x1="35.63" y1="53.24" x2="53.63" y2="53.24" xlink:href="#a"/></defs><g data-name="Layer 2"><path d="M46 36.44a10.67 10.67 0 100-21.33h-.11a17 17 0 00-32.44-5.07h-.25a13.2 13.2 0 000 26.4" fill="#f6f6f6"/><path d="M60.22 36.44a6.7 6.7 0 100-13.39h-.07a10.69 10.69 0 00-20.37-3.18h-.16a8.29 8.29 0 000 16.58" fill="url(#b)"/><path d="M20.63 46.74h-10a1.5 1.5 0 010-3h10a1.5 1.5 0 110 3z" fill="url(#a)"/><path d="M42.13 46.74h-15a1.5 1.5 0 010-3h15a1.5 1.5 0 010 3z" fill="url(#c)"/><path d="M30.63 54.74h-20a1.5 1.5 0 010-3h20a1.5 1.5 0 110 3z" fill="url(#d)"/><path d="M52.13 54.74h-15a1.5 1.5 0 010-3h15a1.5 1.5 0 010 3z" fill="url(#e)"/></g></svg>