<svg xmlns="http://www.w3.org/2000/svg" xmlns:xlink="http://www.w3.org/1999/xlink" viewBox="0 0 66.92 61.37"><defs><linearGradient id="a" x1="38.75" y1="39" x2="59.07" y2="18.67" gradientUnits="userSpaceOnUse"><stop offset="0" stop-color="#d0e8f8"/><stop offset="1" stop-color="#e1eef9"/></linearGradient><linearGradient id="b" x1="10.28" y1="49.55" x2="19.94" y2="49.55" xlink:href="#a"/><linearGradient id="c" x1="38.19" y1="49.55" x2="47.85" y2="49.55" xlink:href="#a"/><linearGradient id="d" x1="24.72" y1="56.54" x2="34.38" y2="56.54" xlink:href="#a"/></defs><g data-name="Layer 2"><path d="M46 36.44a10.67 10.67 0 100-21.33h-.11a17 17 0 00-32.44-5.07h-.25a13.2 13.2 0 000 26.4" fill="#f6f6f6"/><path d="M60.22 36.44a6.7 6.7 0 100-13.39h-.07a10.69 10.69 0 00-20.37-3.18h-.16a8.29 8.29 0 000 16.58" fill="url(#a)"/><circle cx="15.11" cy="49.55" r="4.83" fill="url(#b)"/><circle cx="43.02" cy="49.55" r="4.83" fill="url(#c)"/><circle cx="29.55" cy="56.54" r="4.83" fill="url(#d)"/></g></svg>