<svg xmlns="http://www.w3.org/2000/svg" xmlns:xlink="http://www.w3.org/1999/xlink" viewBox="0 0 66.92 59.04"><defs><linearGradient id="b" x1="38.75" y1="39" x2="59.07" y2="18.67" gradientUnits="userSpaceOnUse"><stop offset="0" stop-color="#d0e8f8"/><stop offset="1" stop-color="#e1eef9"/></linearGradient><linearGradient id="a" x1="3.82" y1="51.41" x2="14.31" y2="51.41" gradientUnits="userSpaceOnUse"><stop offset="0" stop-color="#00aeef"/><stop offset="1" stop-color="#00bdf2"/></linearGradient><linearGradient id="c" x1="14.95" y1="51.41" x2="25.45" y2="51.41" xlink:href="#a"/><linearGradient id="d" x1="26.08" y1="51.41" x2="36.58" y2="51.41" xlink:href="#a"/></defs><g data-name="Layer 2"><path d="M46 36.44a10.67 10.67 0 100-21.33h-.11a17 17 0 00-32.44-5.07h-.25a13.2 13.2 0 000 26.4" fill="#f6f6f6"/><path d="M60.22 36.44a6.7 6.7 0 100-13.39h-.07a10.69 10.69 0 00-20.37-3.18h-.16a8.29 8.29 0 000 16.58" fill="url(#b)"/><path d="M5.81 59a1.87 1.87 0 01-1-.27A2 2 0 014.08 56l6.5-11.25a2 2 0 113.47 2L7.55 58a2 2 0 01-1.74 1z" fill="url(#a)"/><path d="M17 59a1.91 1.91 0 01-1-.27 2 2 0 01-.78-2.73l6.5-11.25a2 2 0 113.46 2L18.68 58A2 2 0 0117 59z" fill="url(#c)"/><path d="M28.08 59a1.93 1.93 0 01-1-.27 2 2 0 01-.73-2.73l6.5-11.25a2 2 0 113.46 2L29.82 58a2 2 0 01-1.74 1z" fill="url(#d)"/></g></svg>