<svg xmlns="http://www.w3.org/2000/svg" xmlns:xlink="http://www.w3.org/1999/xlink" viewBox="0 0 66.92 65"><defs><linearGradient id="a" x1="11.14" y1="46.72" x2="15.14" y2="46.72" gradientUnits="userSpaceOnUse"><stop offset="0" stop-color="#d0e8f8"/><stop offset="1" stop-color="#e1eef9"/></linearGradient><linearGradient id="b" x1="21.14" y1="46.72" x2="25.14" y2="46.72" xlink:href="#a"/><linearGradient id="c" x1="31.14" y1="46.72" x2="35.14" y2="46.72" xlink:href="#a"/><linearGradient id="d" x1="41.14" y1="46.72" x2="45.14" y2="46.72" xlink:href="#a"/><linearGradient id="e" x1="11.14" y1="63" x2="15.14" y2="63" xlink:href="#a"/><linearGradient id="f" x1="21.14" y1="63" x2="25.14" y2="63" xlink:href="#a"/><linearGradient id="g" x1="31.14" y1="63" x2="35.14" y2="63" xlink:href="#a"/><linearGradient id="h" x1="41.14" y1="63" x2="45.14" y2="63" xlink:href="#a"/><linearGradient id="i" x1="6.14" y1="55" x2="10.14" y2="55" xlink:href="#a"/><linearGradient id="j" x1="16.14" y1="55" x2="20.14" y2="55" xlink:href="#a"/><linearGradient id="k" x1="26.14" y1="55" x2="30.14" y2="55" xlink:href="#a"/><linearGradient id="l" x1="36.14" y1="55" x2="40.14" y2="55" xlink:href="#a"/><linearGradient id="m" x1="38.75" y1="39" x2="59.07" y2="18.67" xlink:href="#a"/></defs><g data-name="Layer 2"><circle cx="13.14" cy="46.72" r="2" fill="url(#a)"/><circle cx="23.14" cy="46.72" r="2" fill="url(#b)"/><circle cx="33.14" cy="46.72" r="2" fill="url(#c)"/><circle cx="43.14" cy="46.72" r="2" fill="url(#d)"/><circle cx="13.14" cy="63" r="2" fill="url(#e)"/><circle cx="23.14" cy="63" r="2" fill="url(#f)"/><circle cx="33.14" cy="63" r="2" fill="url(#g)"/><circle cx="43.14" cy="63" r="2" fill="url(#h)"/><circle cx="8.14" cy="55" r="2" fill="url(#i)"/><circle cx="18.14" cy="55" r="2" fill="url(#j)"/><circle cx="28.14" cy="55" r="2" fill="url(#k)"/><circle cx="38.14" cy="55" r="2" fill="url(#l)"/><path d="M46 36.44a10.67 10.67 0 100-21.33h-.11a17 17 0 00-32.44-5.07h-.25a13.2 13.2 0 000 26.4" fill="#f6f6f6"/><path d="M60.22 36.44a6.7 6.7 0 100-13.39h-.07a10.69 10.69 0 00-20.37-3.18h-.16a8.29 8.29 0 000 16.58" fill="url(#m)"/></g></svg>